<svg width="66" height="67" viewBox="0 0 66 67" fill="none" xmlns="http://www.w3.org/2000/svg">
<g clip-path="url(#clip0_145_8569)">
<path d="M0 57.9899C0 62.6903 3.81021 66.5 8.51013 66.5H57.4896C62.1903 66.5 66 62.6898 66 57.9899V9.01039C66 4.30969 62.1898 0.5 57.4899 0.5H8.51039C3.80969 0.5 0 4.31021 0 9.01013V57.9896V57.9899Z" fill="#563D7C"/>
<path d="M27.3688 29.6942V20.3477H35.5959C36.3796 20.3477 37.135 20.4129 37.8626 20.5436C38.5901 20.6741 39.2339 20.9071 39.7936 21.2431C40.353 21.579 40.8008 22.0454 41.1368 22.6422C41.4724 23.2393 41.6405 24.0043 41.6405 24.9368C41.6405 26.6159 41.1368 27.8286 40.1292 28.5748C39.122 29.3211 37.8347 29.6942 36.2675 29.6942H27.3688V29.6942ZM18.5818 13.5195V53.4805H37.9466C39.7376 53.4805 41.482 53.2567 43.1797 52.8089C44.8774 52.361 46.3884 51.6709 47.7131 50.7381C49.0374 49.8054 50.0916 48.6019 50.8751 47.1282C51.6589 45.6543 52.0505 43.91 52.0505 41.8951C52.0505 39.3951 51.4441 37.2592 50.2316 35.487C49.0189 33.7145 47.1812 32.4739 44.7186 31.7649C46.5096 30.9069 47.8623 29.8061 48.7765 28.4629C49.6905 27.1197 50.1476 25.4408 50.1476 23.4257C50.1476 21.5602 49.8397 19.9932 49.2241 18.7245C48.6084 17.4561 47.7409 16.4393 46.6215 15.6743C45.5023 14.9094 44.1591 14.359 42.5919 14.0233C41.0249 13.6874 39.2898 13.5195 37.3869 13.5195H18.5818V13.5195ZM27.3688 46.6523V35.6826H36.9391C38.842 35.6826 40.3718 36.1209 41.5286 36.998C42.6852 37.8748 43.2637 39.3392 43.2637 41.3914C43.2637 42.4363 43.0864 43.2943 42.7319 43.9659C42.3774 44.6375 41.9017 45.1694 41.3046 45.561C40.7078 45.9529 40.0173 46.2326 39.2339 46.4007C38.4501 46.5683 37.6295 46.6523 36.7712 46.6523H27.3688V46.6523Z" fill="white"/>
</g>
<defs>
<clipPath id="clip0_145_8569">
<rect width="66" height="66" fill="white" transform="translate(0 0.5)"/>
</clipPath>
</defs>
</svg>
