<svg width="64" height="71" viewBox="0 0 64 71" fill="none" xmlns="http://www.w3.org/2000/svg">
<path fill-rule="evenodd" clip-rule="evenodd" d="M31.8733 1.02374L62.4356 13.0122L59.4807 53.2835L32.042 70L4.43465 53.1147L1.56439 13.0965L31.8733 1.02374Z" fill="url(#paint0_linear_145_8580)" stroke="white" stroke-width="1.40625"/>
<path fill-rule="evenodd" clip-rule="evenodd" d="M31.7897 1L32.0429 69.9859L59.4474 53.214L62.3587 12.9617L31.7897 1Z" fill="black" fill-opacity="0.098"/>
<path d="M26.6251 34.9064V46.3366H33.3955C35.6663 46.3366 37.3449 45.87 38.4314 44.9367C39.5321 43.9894 40.0824 42.5475 40.0824 40.611C40.0824 38.6608 39.5321 37.226 38.4316 36.3065C37.345 35.3731 35.6664 34.9064 33.3957 34.9064H26.625H26.6251ZM26.6251 22.0761V31.4793H32.8732C34.9349 31.4793 36.4672 31.0962 37.4703 30.3301C38.4873 29.5499 38.9958 28.3658 38.9958 26.7777C38.9958 25.2035 38.4873 24.0264 37.4703 23.2462C36.4672 22.4661 34.9349 22.0761 32.8732 22.0761H26.625H26.6251ZM22.4039 18.6072H33.1865C36.4046 18.6072 38.8843 19.2759 40.6257 20.6133C42.367 21.9507 43.2377 23.8522 43.2377 26.3179C43.2377 28.2265 42.7919 29.745 41.9005 30.8734C41.0088 32.0018 39.6992 32.7053 37.9718 32.984C40.0476 33.4297 41.6566 34.363 42.7989 35.784C43.9551 37.191 44.5332 38.9533 44.5332 41.0708C44.5332 43.857 43.5859 46.0093 41.6913 47.5279C39.7968 49.0463 37.1012 49.8055 33.6045 49.8055H22.4041V18.6072H22.4039Z" fill="white"/>
<defs>
<linearGradient id="paint0_linear_145_8580" x1="31.9131" y1="69.8992" x2="32.0115" y2="0.891383" gradientUnits="userSpaceOnUse">
<stop stop-color="#0143A3"/>
<stop offset="1" stop-color="#0273D4"/>
</linearGradient>
</defs>
</svg>
