<svg width="150" height="48" viewBox="0 0 150 48" fill="none" xmlns="http://www.w3.org/2000/svg">
<path fill-rule="evenodd" clip-rule="evenodd" d="M44.6235 23.4899C44.6235 11.8267 35.2359 2.3718 23.6558 2.3718V0.205841C36.4236 0.205841 46.7741 10.6305 46.7741 23.4899C46.7741 30.0602 44.0706 35.9964 39.7259 40.2285L38.2308 38.6716C42.174 34.8307 44.6235 29.4493 44.6235 23.4899Z" fill="url(#paint0_linear_165_9690)"/>
<path fill-rule="evenodd" clip-rule="evenodd" d="M2.15041 23.4899C2.15041 35.1531 11.538 44.608 23.1182 44.608V46.7739C10.3503 46.7739 -0.000126779 36.3493 -0.000126779 23.4899C-0.000126779 17.1606 2.50867 11.4194 6.57694 7.22342L8.11555 8.73669C4.4237 12.5444 2.15041 17.7487 2.15041 23.4899Z" fill="url(#paint1_linear_165_9690)"/>
<path d="M71.7715 22.5967H80.0334C80.0334 18.9453 79.1628 16.294 77.4218 14.6429C75.7125 12.96 72.9269 12.1186 69.065 12.1186C65.3297 12.1186 62.5441 13.0235 60.7082 14.8334C58.8722 16.6432 57.9542 19.2786 57.9542 22.7396C57.9542 24.7399 58.2866 26.3593 58.9513 27.5976C59.6477 28.8359 60.5024 29.8361 61.5153 30.5981C62.56 31.3602 63.6837 31.9793 64.8866 32.4556C66.0895 32.9319 67.1974 33.4082 68.2103 33.8845C69.2549 34.329 70.1096 34.8846 70.7744 35.5514C71.4708 36.1865 71.819 37.0596 71.819 38.1709C71.819 39.0917 71.5657 39.8697 71.0592 40.5047C70.5844 41.1397 69.888 41.4572 68.97 41.4572C68.1154 41.4572 67.419 41.1715 66.8808 40.5999C66.3427 39.9967 66.0736 38.9647 66.0736 37.5042V36.6945H57.5269V37.8852C57.5269 39.6633 57.7801 41.1556 58.2866 42.3622C58.793 43.5687 59.5211 44.553 60.4707 45.3151C61.452 46.0454 62.6391 46.5534 64.0319 46.8392C65.4564 47.1567 67.0866 47.3154 68.9226 47.3154C72.8161 47.3154 75.7916 46.5058 77.8492 44.8864C79.9067 43.2353 80.9355 40.5999 80.9355 36.9802C80.9355 34.9164 80.5715 33.2494 79.8434 31.9793C79.147 30.6775 78.2607 29.6297 77.1844 28.8359C76.1082 28.0421 74.9528 27.4071 73.7182 26.9308C72.4837 26.4228 71.3283 25.9306 70.252 25.4544C69.1758 24.9781 68.2736 24.4224 67.5456 23.7874C66.8492 23.1206 66.501 22.2316 66.501 21.1202C66.501 20.3582 66.7225 19.6755 67.1657 19.0723C67.6089 18.4372 68.3053 18.1197 69.2549 18.1197C70.1096 18.1197 70.7427 18.4848 71.1542 19.2151C71.5657 19.9137 71.7715 20.771 71.7715 21.787V22.5967Z" fill="white"/>
<path d="M86.1162 12.7854V46.7915H94.9479V12.7854H86.1162Z" fill="white"/>
<path d="M112.22 19.739L109.799 34.1702H114.737L112.315 19.739H112.22ZM117.823 12.7854L126.085 46.7915H116.684L115.781 40.8381H108.754L107.852 46.7915H98.5929L106.712 12.7854H117.823Z" fill="white"/>
<path d="M129.915 12.7854V46.7915H138.747V32.789H149.849V25.8354H138.747V20.0248H150V12.7854H129.915Z" fill="white"/>
<g opacity="0.8">
<path d="M58.5935 3.66155V5.62075H57.9382V0.616199H59.7709C60.3146 0.616199 60.7401 0.755978 61.0472 1.03554C61.3566 1.31509 61.5113 1.68516 61.5113 2.14575C61.5113 2.63154 61.3601 3.00619 61.0575 3.26971C60.7571 3.53094 60.326 3.66155 59.764 3.66155H58.5935ZM58.5935 3.12191H59.7709C60.1212 3.12191 60.3897 3.03942 60.5763 2.87443C60.7628 2.70716 60.8561 2.46655 60.8561 2.15262C60.8561 1.85473 60.7628 1.61642 60.5763 1.43769C60.3897 1.25895 60.1337 1.16615 59.8084 1.15927H58.5935V3.12191Z" fill="white"/>
<path d="M64.0545 5.08111H66.4093V5.62075H63.3959V0.616199H64.0545V5.08111Z" fill="white"/>
<path d="M71.0171 4.31461H68.9354L68.4678 5.62075H67.7921L69.6896 0.616199H70.2629L72.1638 5.62075H71.4915L71.0171 4.31461ZM69.1333 3.77154H70.8226L69.9763 1.43081L69.1333 3.77154Z" fill="white"/>
<path d="M76.8706 1.15927H75.2735V5.62075H74.6217V1.15927H73.0279V0.616199H76.8706V1.15927Z" fill="white"/>
<path d="M81.127 4.31461H79.0452L78.5777 5.62075H77.902L79.7994 0.616199H80.3728L82.2737 5.62075H81.6013L81.127 4.31461ZM79.2432 3.77154H80.9325L80.0861 1.43081L79.2432 3.77154Z" fill="white"/>
<path d="M86.7313 3.41063H84.6462V5.62075H83.9909V0.616199H87.0692V1.15927H84.6462V2.87099H86.7313V3.41063Z" fill="white"/>
<path d="M92.7248 3.28002C92.7248 3.77039 92.6429 4.1989 92.479 4.56553C92.3152 4.92987 92.0832 5.20828 91.7829 5.40077C91.4825 5.59325 91.1322 5.68949 90.7317 5.68949C90.3404 5.68949 89.9935 5.59325 89.6909 5.40077C89.3883 5.20599 89.1528 4.92987 88.9844 4.5724C88.8183 4.21264 88.733 3.79674 88.7285 3.3247V2.9638C88.7285 2.48259 88.8115 2.05753 88.9776 1.6886C89.1437 1.31968 89.378 1.03783 89.6806 0.843053C89.9855 0.645988 90.3336 0.547455 90.7249 0.547455C91.1231 0.547455 91.4734 0.644842 91.776 0.839616C92.0809 1.0321 92.3152 1.3128 92.479 1.68173C92.6429 2.04836 92.7248 2.47572 92.7248 2.9638V3.28002ZM92.0729 2.95692C92.0729 2.36344 91.9546 1.90858 91.718 1.59236C91.4814 1.27385 91.1504 1.11459 90.7249 1.11459C90.3108 1.11459 89.9844 1.27385 89.7455 1.59236C89.5088 1.90858 89.3871 2.34854 89.3803 2.91224V3.28002C89.3803 3.85518 89.4997 4.30774 89.7386 4.63771C89.9798 4.96539 90.3108 5.12923 90.7317 5.12923C91.1549 5.12923 91.4825 4.97455 91.7146 4.66521C91.9467 4.35357 92.0661 3.90788 92.0729 3.32814V2.95692Z" fill="white"/>
<path d="M96.5784 3.59624H95.4113V5.62075H94.7526V0.616199H96.3975C96.9572 0.616199 97.3872 0.74452 97.6875 1.00116C97.9901 1.25781 98.1414 1.63132 98.1414 2.12169C98.1414 2.43333 98.0573 2.70486 97.8889 2.9363C97.7228 3.16774 97.4907 3.34074 97.1927 3.45532L98.3599 5.5795V5.62075H97.6568L96.5784 3.59624ZM95.4113 3.0566H96.418C96.7434 3.0566 97.0016 2.97182 97.1927 2.80225C97.3861 2.63268 97.4828 2.40583 97.4828 2.12169C97.4828 1.81234 97.3906 1.57517 97.2064 1.41019C97.0243 1.2452 96.7604 1.16157 96.4146 1.15927H95.4113V3.0566Z" fill="white"/>
<path d="M100.958 0.616199L102.582 4.69958L104.207 0.616199H105.056V5.62075H104.401V3.67186L104.462 1.5683L102.831 5.62075H102.33L100.702 1.57861L100.766 3.67186V5.62075H100.111V0.616199H100.958Z" fill="white"/>
<path d="M110.067 4.31461H107.985L107.518 5.62075H106.842L108.739 0.616199H109.313L111.214 5.62075H110.541L110.067 4.31461ZM108.183 3.77154H109.872L109.026 1.43081L108.183 3.77154Z" fill="white"/>
</g>
<path fill-rule="evenodd" clip-rule="evenodd" d="M38.1224 5.70144L39.4856 4.32701C39.7812 4.029 40.2215 3.93064 40.6145 4.07484C41.0074 4.21905 41.2817 4.57966 41.3177 4.99932L42.4652 18.3999C42.4935 18.7298 42.3703 19.0547 42.1308 19.2816C41.8914 19.5086 41.5619 19.6127 41.2367 19.5643L28.656 17.6911C28.2541 17.6312 27.92 17.3484 27.7924 16.96C27.6648 16.5715 27.7654 16.1438 28.0525 15.8543L29.7594 14.1333C27.7956 12.5102 25.3247 11.6128 22.7622 11.6142C19.8391 11.6157 17.0364 12.7868 14.9705 14.8696C14.5508 15.2928 13.87 15.2931 13.4499 14.8704C13.0297 14.4477 13.0294 13.762 13.4491 13.3389C15.918 10.8496 19.2676 9.45009 22.7611 9.44822C26.2545 9.44635 29.6056 10.8423 32.0771 13.3289C32.2789 13.5319 32.3923 13.8073 32.3925 14.0945C32.3926 14.3817 32.2795 14.6573 32.078 14.8605L31.0836 15.863L40.2058 17.2213L39.3737 7.50464L38.9173 7.96478C38.714 8.16974 38.4377 8.28412 38.15 8.28236C37.8627 8.2806 37.588 8.16309 37.3873 7.95608L37.3867 7.95541L37.3847 7.95342L37.3665 7.93514C37.349 7.91768 37.3209 7.88988 37.2823 7.85269C37.2051 7.77829 37.0861 7.66647 36.9273 7.52501C36.6095 7.24192 36.1331 6.84114 35.5126 6.38455C34.2695 5.46987 32.4606 4.34044 30.201 3.48057C25.7128 1.77262 19.4094 1.10722 12.1017 5.40951C11.589 5.71135 10.9305 5.53744 10.6308 5.02107C10.3311 4.50471 10.5038 3.84143 11.0164 3.53959C18.9707 -1.1434 25.9661 -0.446377 30.9611 1.45442C33.4431 2.39892 35.422 3.63545 36.7812 4.63562C37.3297 5.03916 37.7792 5.40571 38.1224 5.70144Z" fill="white"/>
<path d="M23.3871 19.158C22.7455 19.158 22.1301 19.4161 21.6764 19.8757C21.2227 20.3353 20.9678 20.9586 20.9678 21.6085C20.9703 22.0362 21.0833 22.4557 21.2955 22.8254C21.5078 23.1951 21.9218 23.5021 22.2874 23.716L20.9678 27.8218H25.8065L24.4868 23.716C24.8525 23.5021 25.2665 23.1951 25.4787 22.8254C25.6909 22.4557 25.8039 22.0362 25.8065 21.6085C25.8065 20.9586 25.5516 20.3353 25.0979 19.8757C24.6442 19.4161 24.0288 19.158 23.3871 19.158Z" fill="white"/>
<path fill-rule="evenodd" clip-rule="evenodd" d="M12.7378 5.62072C12.7378 7.71411 11.0529 9.41115 8.97438 9.41115C6.89589 9.41115 5.21094 7.71411 5.21094 5.62072C5.21094 3.52732 6.89589 1.83029 8.97438 1.83029C11.0529 1.83029 12.7378 3.52732 12.7378 5.62072ZM8.97438 7.24519C9.86516 7.24519 10.5873 6.51789 10.5873 5.62072C10.5873 4.72355 9.86516 3.99625 8.97438 3.99625C8.0836 3.99625 7.36148 4.72355 7.36148 5.62072C7.36148 6.51789 8.0836 7.24519 8.97438 7.24519Z" fill="white"/>
<path fill-rule="evenodd" clip-rule="evenodd" d="M4.10181 27.7453C4.34127 27.5183 4.67068 27.4142 4.99596 27.4626L17.5766 29.3358C17.9785 29.3957 18.3126 29.6785 18.4402 30.0669C18.5678 30.4554 18.4672 30.8831 18.1801 31.1726L16.4732 32.8936C18.437 34.5167 20.908 35.4141 23.4704 35.4127C26.3935 35.4112 29.1963 34.2401 31.2621 32.1573C31.6818 31.7341 32.3626 31.7338 32.7827 32.1565C33.2029 32.5792 33.2033 33.2649 32.7836 33.688C30.3146 36.1773 26.965 37.5768 23.4716 37.5787C19.9781 37.5805 16.627 36.1846 14.1555 33.698C13.7353 33.2753 13.735 32.5896 14.1547 32.1664L15.149 31.1639L6.02686 29.8056L6.85895 39.5223L7.31533 39.0621C7.72458 38.6495 8.38471 38.6374 8.80855 39.0347L8.80866 39.0348C8.80886 39.035 8.80906 39.0351 8.80925 39.0353L8.81224 39.0381L8.83276 39.0569C8.85224 39.0746 8.88323 39.1026 8.92542 39.1397C9.00983 39.2141 9.13896 39.3254 9.31031 39.466C9.6532 39.7474 10.1641 40.1451 10.8229 40.5985C12.1428 41.507 14.0434 42.63 16.3658 43.4923C20.9915 45.2097 27.2687 45.8927 34.0521 41.7846C34.561 41.4764 35.2217 41.6421 35.5277 42.1547C35.8337 42.6673 35.6692 43.3326 35.1603 43.6409C27.6844 48.1683 20.6965 47.4087 15.622 45.5246C13.0942 44.5861 11.036 43.3686 9.6095 42.3868C9.00347 41.9697 8.50912 41.5935 8.13874 41.2967L6.747 42.6999C6.45142 42.9979 6.0111 43.0963 5.61815 42.952C5.22519 42.8078 4.95091 42.4472 4.91497 42.0276L3.76741 28.627C3.73916 28.2971 3.86235 27.9722 4.10181 27.7453Z" fill="white"/>
<path fill-rule="evenodd" clip-rule="evenodd" d="M40.6948 41.359C40.6948 43.4524 39.0099 45.1495 36.9314 45.1495C34.8529 45.1495 33.168 43.4524 33.168 41.359C33.168 39.2656 34.8529 37.5686 36.9314 37.5686C39.0099 37.5686 40.6948 39.2656 40.6948 41.359ZM36.9314 42.9835C37.8222 42.9835 38.5443 42.2562 38.5443 41.359C38.5443 40.4619 37.8222 39.7346 36.9314 39.7346C36.0406 39.7346 35.3185 40.4619 35.3185 41.359C35.3185 42.2562 36.0406 42.9835 36.9314 42.9835Z" fill="white"/>
<defs>
<linearGradient id="paint0_linear_165_9690" x1="36.8278" y1="44.3372" x2="44.7282" y2="14.8541" gradientUnits="userSpaceOnUse">
<stop offset="0.0343969" stop-color="white"/>
<stop offset="1" stop-color="white" stop-opacity="0"/>
</linearGradient>
<linearGradient id="paint1_linear_165_9690" x1="9.94612" y1="2.64253" x2="2.04574" y2="32.1257" gradientUnits="userSpaceOnUse">
<stop offset="0.0343969" stop-color="white"/>
<stop offset="1" stop-color="white" stop-opacity="0"/>
</linearGradient>
</defs>
</svg>
