<svg width="496" height="296" viewBox="0 0 496 296" fill="none" xmlns="http://www.w3.org/2000/svg">
<g filter="url(#filter0_dd_144_8318)">
<rect x="36" y="2" width="400" height="248" rx="4" fill="#F5F6FA"/>
<rect x="36.5" y="2.5" width="399" height="247" rx="3.5" stroke="#D2D3D5"/>
</g>
<g filter="url(#filter1_dd_144_8318)">
<rect x="164" y="40" width="264" height="80" rx="4" fill="white"/>
<rect x="164.5" y="40.5" width="263" height="79" rx="3.5" stroke="#D2D3D5"/>
</g>
<g filter="url(#filter2_dd_144_8318)">
<rect x="164" y="156" width="86" height="66" rx="4" fill="white"/>
<rect x="164.5" y="156.5" width="85" height="65" rx="3.5" stroke="#D2D3D5"/>
</g>
<g filter="url(#filter3_dd_144_8318)">
<rect x="258" y="156" width="170" height="66" rx="4" fill="white"/>
<rect x="258.5" y="156.5" width="169" height="65" rx="3.5" stroke="#D2D3D5"/>
</g>
<rect x="174" y="50" width="22" height="4" fill="#F5F6FA"/>
<rect x="307" y="50" width="22" height="4" fill="#F5F6FA"/>
<rect x="216" y="50" width="69" height="4" fill="#D2D3D5"/>
<rect x="349" y="50" width="52" height="4" fill="#D2D3D5"/>
<rect x="174" y="64" width="31" height="4" fill="#F5F6FA"/>
<rect x="307" y="64" width="31" height="4" fill="#F5F6FA"/>
<rect x="216" y="64" width="47" height="4" fill="#D2D3D5"/>
<rect x="349" y="64" width="69" height="4" fill="#D2D3D5"/>
<rect x="174" y="78" width="27" height="4" fill="#F5F6FA"/>
<rect x="307" y="78" width="27" height="4" fill="#F5F6FA"/>
<rect x="216" y="78" width="62" height="4" fill="#D2D3D5"/>
<rect x="349" y="78" width="65" height="4" fill="#D2D3D5"/>
<rect x="174" y="92" width="19" height="4" fill="#F5F6FA"/>
<rect x="307" y="92" width="19" height="4" fill="#F5F6FA"/>
<rect x="216" y="92" width="51" height="4" fill="#D2D3D5"/>
<rect x="349" y="92" width="62" height="4" fill="#D2D3D5"/>
<rect x="174" y="106" width="31" height="4" fill="#F5F6FA"/>
<rect x="174" y="166" width="20" height="4" fill="#F5F6FA"/>
<rect x="268" y="166" width="20" height="4" fill="#F5F6FA"/>
<rect x="396" y="166" width="20" height="4" fill="#F5F6FA"/>
<rect x="224" y="166" width="16" height="4" fill="#F5F6FA"/>
<rect x="318" y="166" width="16" height="4" fill="#F5F6FA"/>
<rect x="307" y="106" width="31" height="4" fill="#F5F6FA"/>
<rect x="216" y="106" width="62" height="4" fill="#D2D3D5"/>
<rect x="174" y="180" width="30" height="4" fill="#D2D3D5"/>
<rect x="268" y="180" width="26" height="4" fill="#D2D3D5"/>
<rect x="268" y="194" width="30" height="4" fill="#D2D3D5"/>
<rect x="268" y="208" width="17" height="4" fill="#D2D3D5"/>
<rect x="408" y="180" width="8" height="4" fill="#D2D3D5"/>
<rect x="405" y="194" width="11" height="4" fill="#D2D3D5"/>
<rect x="401" y="208" width="15" height="4" fill="#D2D3D5"/>
<rect x="174" y="194" width="30" height="4" fill="#D2D3D5"/>
<rect x="174" y="208" width="30" height="4" fill="#D2D3D5"/>
<rect x="231" y="180" width="9" height="4" fill="#D2D3D5"/>
<rect x="318" y="180" width="60" height="4" fill="#D2D3D5"/>
<rect x="318" y="194" width="46" height="4" fill="#D2D3D5"/>
<rect x="318" y="208" width="33" height="4" fill="#D2D3D5"/>
<rect x="231" y="194" width="9" height="4" fill="#D2D3D5"/>
<rect x="231" y="208" width="9" height="4" fill="#D2D3D5"/>
<rect x="349" y="106" width="33" height="4" fill="#D2D3D5"/>
<g filter="url(#filter4_dd_144_8318)">
<rect x="15.5" y="54.5" width="118" height="216" rx="3.5" fill="white" stroke="#D2D3D5"/>
<rect x="24" y="79" width="100" height="10" rx="5" fill="#F5F6FA"/>
<rect x="114" y="62" width="10" height="10" rx="5" fill="#ED3237"/>
<line x1="16" y1="98.5" x2="133" y2="98.5" stroke="#F5F6FA"/>
<line x1="16" y1="249.5" x2="133" y2="249.5" stroke="#F5F6FA"/>
<rect x="24" y="65" width="40" height="4" fill="#D2D3D5"/>
<rect x="24" y="109" width="24" height="4" fill="#D2D3D5"/>
<rect x="24" y="179" width="40" height="4" fill="#D2D3D5"/>
<rect x="24" y="123" width="54" height="4" fill="#F5F6FA"/>
<rect x="24" y="193" width="54" height="4" fill="#F5F6FA"/>
<rect x="24" y="137" width="74" height="4" fill="#F5F6FA"/>
<rect x="24" y="207" width="74" height="4" fill="#F5F6FA"/>
<rect x="24" y="151" width="48" height="4" fill="#F5F6FA"/>
<rect x="24" y="228" width="48" height="4" fill="#F5F6FA"/>
<rect x="24" y="165" width="74" height="4" fill="#F5F6FA"/>
<rect x="120" y="259" width="4" height="4" fill="#D2D3D5"/>
<rect x="28" y="263" width="4" height="4" transform="rotate(-180 28 263)" fill="#D2D3D5"/>
<rect x="63" y="263" width="27" height="4" transform="rotate(-180 63 263)" fill="#D2D3D5"/>
</g>
<path d="M37 6C37 4.34315 38.3431 3 40 3H432C433.657 3 435 4.34315 435 6V32H37V6Z" fill="white"/>
<rect x="46" y="12" width="10" height="10" rx="5" fill="#D2D3D5"/>
<rect x="60" y="15" width="26" height="4" fill="#D2D3D5"/>
<rect x="424" y="15" width="4" height="4" fill="#D2D3D5"/>
<line x1="154.5" y1="32" x2="154.5" y2="250" stroke="#D2D3D5" stroke-dasharray="2 2"/>
<rect x="164.5" y="128.5" width="263" height="19" rx="3.5" stroke="#D2D3D5" stroke-dasharray="2 2"/>
<g filter="url(#filter5_dd_144_8318)">
<rect x="217.5" y="128.5" width="263" height="19" rx="3.5" fill="white" stroke="#D2D3D5"/>
<rect x="265" y="132" width="31" height="4" fill="#F5F6FA"/>
<rect x="272" y="140" width="17" height="4" fill="#D2D3D5"/>
<rect x="340" y="140" width="17" height="4" fill="#D2D3D5"/>
<rect x="408" y="140" width="17" height="4" fill="#D2D3D5"/>
<rect x="333" y="132" width="31" height="4" fill="#F5F6FA"/>
<rect x="401" y="132" width="31" height="4" fill="#F5F6FA"/>
</g>
<line x1="37" y1="32.5" x2="435" y2="32.5" stroke="#D2D3D5"/>
<defs>
<filter id="filter0_dd_144_8318" x="30" y="0" width="412" height="260" filterUnits="userSpaceOnUse" color-interpolation-filters="sRGB">
<feFlood flood-opacity="0" result="BackgroundImageFix"/>
<feColorMatrix in="SourceAlpha" type="matrix" values="0 0 0 0 0 0 0 0 0 0 0 0 0 0 0 0 0 0 127 0" result="hardAlpha"/>
<feOffset dy="4"/>
<feGaussianBlur stdDeviation="3"/>
<feColorMatrix type="matrix" values="0 0 0 0 0 0 0 0 0 0 0 0 0 0 0 0 0 0 0.1 0"/>
<feBlend mode="normal" in2="BackgroundImageFix" result="effect1_dropShadow_144_8318"/>
<feColorMatrix in="SourceAlpha" type="matrix" values="0 0 0 0 0 0 0 0 0 0 0 0 0 0 0 0 0 0 127 0" result="hardAlpha"/>
<feOffset dy="2"/>
<feGaussianBlur stdDeviation="2"/>
<feColorMatrix type="matrix" values="0 0 0 0 0 0 0 0 0 0 0 0 0 0 0 0 0 0 0.06 0"/>
<feBlend mode="normal" in2="effect1_dropShadow_144_8318" result="effect2_dropShadow_144_8318"/>
<feBlend mode="normal" in="SourceGraphic" in2="effect2_dropShadow_144_8318" result="shape"/>
</filter>
<filter id="filter1_dd_144_8318" x="161" y="38" width="270" height="86" filterUnits="userSpaceOnUse" color-interpolation-filters="sRGB">
<feFlood flood-opacity="0" result="BackgroundImageFix"/>
<feColorMatrix in="SourceAlpha" type="matrix" values="0 0 0 0 0 0 0 0 0 0 0 0 0 0 0 0 0 0 127 0" result="hardAlpha"/>
<feOffset dy="1"/>
<feGaussianBlur stdDeviation="1.5"/>
<feColorMatrix type="matrix" values="0 0 0 0 0 0 0 0 0 0 0 0 0 0 0 0 0 0 0.1 0"/>
<feBlend mode="normal" in2="BackgroundImageFix" result="effect1_dropShadow_144_8318"/>
<feColorMatrix in="SourceAlpha" type="matrix" values="0 0 0 0 0 0 0 0 0 0 0 0 0 0 0 0 0 0 127 0" result="hardAlpha"/>
<feOffset dy="1"/>
<feGaussianBlur stdDeviation="1"/>
<feColorMatrix type="matrix" values="0 0 0 0 0 0 0 0 0 0 0 0 0 0 0 0 0 0 0.06 0"/>
<feBlend mode="normal" in2="effect1_dropShadow_144_8318" result="effect2_dropShadow_144_8318"/>
<feBlend mode="normal" in="SourceGraphic" in2="effect2_dropShadow_144_8318" result="shape"/>
</filter>
<filter id="filter2_dd_144_8318" x="161" y="154" width="92" height="72" filterUnits="userSpaceOnUse" color-interpolation-filters="sRGB">
<feFlood flood-opacity="0" result="BackgroundImageFix"/>
<feColorMatrix in="SourceAlpha" type="matrix" values="0 0 0 0 0 0 0 0 0 0 0 0 0 0 0 0 0 0 127 0" result="hardAlpha"/>
<feOffset dy="1"/>
<feGaussianBlur stdDeviation="1.5"/>
<feColorMatrix type="matrix" values="0 0 0 0 0 0 0 0 0 0 0 0 0 0 0 0 0 0 0.1 0"/>
<feBlend mode="normal" in2="BackgroundImageFix" result="effect1_dropShadow_144_8318"/>
<feColorMatrix in="SourceAlpha" type="matrix" values="0 0 0 0 0 0 0 0 0 0 0 0 0 0 0 0 0 0 127 0" result="hardAlpha"/>
<feOffset dy="1"/>
<feGaussianBlur stdDeviation="1"/>
<feColorMatrix type="matrix" values="0 0 0 0 0 0 0 0 0 0 0 0 0 0 0 0 0 0 0.06 0"/>
<feBlend mode="normal" in2="effect1_dropShadow_144_8318" result="effect2_dropShadow_144_8318"/>
<feBlend mode="normal" in="SourceGraphic" in2="effect2_dropShadow_144_8318" result="shape"/>
</filter>
<filter id="filter3_dd_144_8318" x="255" y="154" width="176" height="72" filterUnits="userSpaceOnUse" color-interpolation-filters="sRGB">
<feFlood flood-opacity="0" result="BackgroundImageFix"/>
<feColorMatrix in="SourceAlpha" type="matrix" values="0 0 0 0 0 0 0 0 0 0 0 0 0 0 0 0 0 0 127 0" result="hardAlpha"/>
<feOffset dy="1"/>
<feGaussianBlur stdDeviation="1.5"/>
<feColorMatrix type="matrix" values="0 0 0 0 0 0 0 0 0 0 0 0 0 0 0 0 0 0 0.1 0"/>
<feBlend mode="normal" in2="BackgroundImageFix" result="effect1_dropShadow_144_8318"/>
<feColorMatrix in="SourceAlpha" type="matrix" values="0 0 0 0 0 0 0 0 0 0 0 0 0 0 0 0 0 0 127 0" result="hardAlpha"/>
<feOffset dy="1"/>
<feGaussianBlur stdDeviation="1"/>
<feColorMatrix type="matrix" values="0 0 0 0 0 0 0 0 0 0 0 0 0 0 0 0 0 0 0.06 0"/>
<feBlend mode="normal" in2="effect1_dropShadow_144_8318" result="effect2_dropShadow_144_8318"/>
<feBlend mode="normal" in="SourceGraphic" in2="effect2_dropShadow_144_8318" result="shape"/>
</filter>
<filter id="filter4_dd_144_8318" x="0" y="49" width="149" height="247" filterUnits="userSpaceOnUse" color-interpolation-filters="sRGB">
<feFlood flood-opacity="0" result="BackgroundImageFix"/>
<feColorMatrix in="SourceAlpha" type="matrix" values="0 0 0 0 0 0 0 0 0 0 0 0 0 0 0 0 0 0 127 0" result="hardAlpha"/>
<feOffset dy="4"/>
<feGaussianBlur stdDeviation="3"/>
<feColorMatrix type="matrix" values="0 0 0 0 0 0 0 0 0 0 0 0 0 0 0 0 0 0 0.05 0"/>
<feBlend mode="normal" in2="BackgroundImageFix" result="effect1_dropShadow_144_8318"/>
<feColorMatrix in="SourceAlpha" type="matrix" values="0 0 0 0 0 0 0 0 0 0 0 0 0 0 0 0 0 0 127 0" result="hardAlpha"/>
<feOffset dy="10"/>
<feGaussianBlur stdDeviation="7.5"/>
<feColorMatrix type="matrix" values="0 0 0 0 0 0 0 0 0 0 0 0 0 0 0 0 0 0 0.1 0"/>
<feBlend mode="normal" in2="effect1_dropShadow_144_8318" result="effect2_dropShadow_144_8318"/>
<feBlend mode="normal" in="SourceGraphic" in2="effect2_dropShadow_144_8318" result="shape"/>
</filter>
<filter id="filter5_dd_144_8318" x="202" y="123" width="294" height="50" filterUnits="userSpaceOnUse" color-interpolation-filters="sRGB">
<feFlood flood-opacity="0" result="BackgroundImageFix"/>
<feColorMatrix in="SourceAlpha" type="matrix" values="0 0 0 0 0 0 0 0 0 0 0 0 0 0 0 0 0 0 127 0" result="hardAlpha"/>
<feOffset dy="4"/>
<feGaussianBlur stdDeviation="3"/>
<feColorMatrix type="matrix" values="0 0 0 0 0 0 0 0 0 0 0 0 0 0 0 0 0 0 0.05 0"/>
<feBlend mode="normal" in2="BackgroundImageFix" result="effect1_dropShadow_144_8318"/>
<feColorMatrix in="SourceAlpha" type="matrix" values="0 0 0 0 0 0 0 0 0 0 0 0 0 0 0 0 0 0 127 0" result="hardAlpha"/>
<feOffset dy="10"/>
<feGaussianBlur stdDeviation="7.5"/>
<feColorMatrix type="matrix" values="0 0 0 0 0 0 0 0 0 0 0 0 0 0 0 0 0 0 0.1 0"/>
<feBlend mode="normal" in2="effect1_dropShadow_144_8318" result="effect2_dropShadow_144_8318"/>
<feBlend mode="normal" in="SourceGraphic" in2="effect2_dropShadow_144_8318" result="shape"/>
</filter>
</defs>
</svg>
